<svg xmlns="http://www.w3.org/2000/svg" xmlns:xlink="http://www.w3.org/1999/xlink" width="100" zoomAndPan="magnify" viewBox="0 0 75 30.000001" height="40" preserveAspectRatio="xMidYMid meet" version="1.0"><defs><g/><clipPath id="b6fa78d3cb"><path d="M 1.210938 0 L 41.675781 0 L 41.675781 28.273438 L 1.210938 28.273438 Z M 1.210938 0 " clip-rule="nonzero"/></clipPath></defs><g clip-path="url(#b6fa78d3cb)"><path fill="#ff9202" d="M 88.8125 26.457031 C 89.25 26.457031 89.601562 26.8125 89.601562 27.246094 C 89.601562 27.683594 89.25 28.035156 88.8125 28.035156 L 7.765625 28.035156 C 6.984375 28.035156 6.273438 27.71875 5.761719 27.203125 C 5.246094 26.691406 4.929688 25.980469 4.929688 25.199219 L 4.929688 15.230469 L 3.523438 15.230469 C 2.972656 15.230469 2.519531 15.085938 2.167969 14.847656 C 1.777344 14.582031 1.519531 14.210938 1.386719 13.785156 C 1.265625 13.390625 1.261719 12.957031 1.371094 12.535156 C 1.5 12.035156 1.789062 11.542969 2.230469 11.164062 L 14.3125 0.746094 C 14.894531 0.25 15.644531 0 16.386719 0 C 17.125 0 17.875 0.25 18.453125 0.746094 L 26.574219 7.769531 C 26.90625 8.054688 26.941406 8.550781 26.65625 8.882812 C 26.371094 9.210938 25.875 9.246094 25.546875 8.960938 L 17.425781 1.9375 C 17.148438 1.699219 16.769531 1.578125 16.386719 1.578125 C 16 1.578125 15.621094 1.699219 15.34375 1.9375 L 3.261719 12.355469 C 3.070312 12.519531 2.945312 12.722656 2.894531 12.925781 C 2.859375 13.066406 2.855469 13.207031 2.890625 13.324219 C 2.917969 13.410156 2.972656 13.484375 3.050781 13.539062 C 3.152344 13.609375 3.308594 13.652344 3.523438 13.652344 L 5.71875 13.652344 C 6.152344 13.652344 6.507812 14.003906 6.507812 14.441406 L 6.507812 25.199219 C 6.507812 25.546875 6.648438 25.859375 6.878906 26.089844 C 7.105469 26.316406 7.417969 26.457031 7.765625 26.457031 Z M 88.8125 26.457031 " fill-opacity="1" fill-rule="nonzero"/></g><g fill="#558df0" fill-opacity="1"><g transform="translate(10.409949, 22.054183)"><g><path d="M 8.625 -9.34375 L 8.625 0 L 6.921875 0 L 2.859375 -5.875 L 2.78125 -5.875 L 2.78125 0 L 0.8125 0 L 0.8125 -9.34375 L 2.546875 -9.34375 L 6.578125 -3.46875 L 6.65625 -3.46875 L 6.65625 -9.34375 Z M 8.625 -9.34375 "/></g></g></g><g fill="#558df0" fill-opacity="1"><g transform="translate(19.646556, 22.054183)"><g><path d="M 3.96875 0.140625 C 3.25 0.140625 2.628906 -0.00390625 2.109375 -0.296875 C 1.585938 -0.597656 1.1875 -1.015625 0.90625 -1.546875 C 0.632812 -2.085938 0.5 -2.726562 0.5 -3.46875 C 0.5 -4.1875 0.632812 -4.816406 0.90625 -5.359375 C 1.1875 -5.910156 1.582031 -6.335938 2.09375 -6.640625 C 2.601562 -6.941406 3.203125 -7.09375 3.890625 -7.09375 C 4.503906 -7.09375 5.0625 -6.960938 5.5625 -6.703125 C 6.0625 -6.441406 6.457031 -6.046875 6.75 -5.515625 C 7.039062 -4.992188 7.1875 -4.335938 7.1875 -3.546875 L 7.1875 -3 L 2.40625 -3 C 2.40625 -2.476562 2.546875 -2.066406 2.828125 -1.765625 C 3.117188 -1.460938 3.507812 -1.3125 4 -1.3125 C 4.320312 -1.3125 4.601562 -1.378906 4.84375 -1.515625 C 5.082031 -1.648438 5.25 -1.851562 5.34375 -2.125 L 7.140625 -2 C 7.003906 -1.351562 6.65625 -0.832031 6.09375 -0.4375 C 5.539062 -0.0507812 4.832031 0.140625 3.96875 0.140625 Z M 2.40625 -4.203125 L 5.359375 -4.203125 C 5.347656 -4.617188 5.210938 -4.960938 4.953125 -5.234375 C 4.691406 -5.503906 4.347656 -5.640625 3.921875 -5.640625 C 3.492188 -5.640625 3.140625 -5.5 2.859375 -5.21875 C 2.578125 -4.945312 2.425781 -4.609375 2.40625 -4.203125 Z M 2.40625 -4.203125 "/></g></g></g><g fill="#558df0" fill-opacity="1"><g transform="translate(27.117892, 22.054183)"><g><path d="M 2.40625 -7 L 3.6875 -4.5625 L 5 -7 L 7 -7 L 4.96875 -3.5 L 7.046875 0 L 5.0625 0 L 3.6875 -2.421875 L 2.328125 0 L 0.3125 0 L 2.40625 -3.5 L 0.390625 -7 Z M 2.40625 -7 "/></g></g></g><g fill="#558df0" fill-opacity="1"><g transform="translate(34.283615, 22.054183)"><g><path d="M 4.5 -7 L 4.5 -5.546875 L 3.1875 -5.546875 L 3.1875 -2.15625 C 3.1875 -1.882812 3.242188 -1.703125 3.359375 -1.609375 C 3.484375 -1.515625 3.644531 -1.46875 3.84375 -1.46875 C 3.9375 -1.46875 4.023438 -1.472656 4.109375 -1.484375 C 4.203125 -1.503906 4.273438 -1.519531 4.328125 -1.53125 L 4.625 -0.09375 C 4.53125 -0.0625 4.394531 -0.0234375 4.21875 0.015625 C 4.039062 0.0546875 3.828125 0.0820312 3.578125 0.09375 C 2.867188 0.125 2.300781 -0.0234375 1.875 -0.359375 C 1.445312 -0.691406 1.234375 -1.203125 1.234375 -1.890625 L 1.234375 -5.546875 L 0.28125 -5.546875 L 0.28125 -7 L 1.234375 -7 L 1.234375 -8.6875 L 3.1875 -8.6875 L 3.1875 -7 Z M 4.5 -7 "/></g></g></g><g fill="#558df0" fill-opacity="1"><g transform="translate(39.068274, 22.054183)"><g/></g></g><g fill="#558df0" fill-opacity="1"><g transform="translate(41.841344, 22.054183)"><g><path d="M 8.625 -9.34375 L 8.625 0 L 6.921875 0 L 2.859375 -5.875 L 2.78125 -5.875 L 2.78125 0 L 0.8125 0 L 0.8125 -9.34375 L 2.546875 -9.34375 L 6.578125 -3.46875 L 6.65625 -3.46875 L 6.65625 -9.34375 Z M 8.625 -9.34375 "/></g></g></g><g fill="#558df0" fill-opacity="1"><g transform="translate(51.07795, 22.054183)"><g><path d="M 3.96875 0.140625 C 3.25 0.140625 2.628906 -0.00390625 2.109375 -0.296875 C 1.585938 -0.597656 1.1875 -1.015625 0.90625 -1.546875 C 0.632812 -2.085938 0.5 -2.726562 0.5 -3.46875 C 0.5 -4.1875 0.632812 -4.816406 0.90625 -5.359375 C 1.1875 -5.910156 1.582031 -6.335938 2.09375 -6.640625 C 2.601562 -6.941406 3.203125 -7.09375 3.890625 -7.09375 C 4.503906 -7.09375 5.0625 -6.960938 5.5625 -6.703125 C 6.0625 -6.441406 6.457031 -6.046875 6.75 -5.515625 C 7.039062 -4.992188 7.1875 -4.335938 7.1875 -3.546875 L 7.1875 -3 L 2.40625 -3 C 2.40625 -2.476562 2.546875 -2.066406 2.828125 -1.765625 C 3.117188 -1.460938 3.507812 -1.3125 4 -1.3125 C 4.320312 -1.3125 4.601562 -1.378906 4.84375 -1.515625 C 5.082031 -1.648438 5.25 -1.851562 5.34375 -2.125 L 7.140625 -2 C 7.003906 -1.351562 6.65625 -0.832031 6.09375 -0.4375 C 5.539062 -0.0507812 4.832031 0.140625 3.96875 0.140625 Z M 2.40625 -4.203125 L 5.359375 -4.203125 C 5.347656 -4.617188 5.210938 -4.960938 4.953125 -5.234375 C 4.691406 -5.503906 4.347656 -5.640625 3.921875 -5.640625 C 3.492188 -5.640625 3.140625 -5.5 2.859375 -5.21875 C 2.578125 -4.945312 2.425781 -4.609375 2.40625 -4.203125 Z M 2.40625 -4.203125 "/></g></g></g><g fill="#558df0" fill-opacity="1"><g transform="translate(58.549287, 22.054183)"><g><path d="M 6.609375 -5.015625 L 4.828125 -4.90625 C 4.773438 -5.125 4.648438 -5.3125 4.453125 -5.46875 C 4.253906 -5.632812 3.988281 -5.71875 3.65625 -5.71875 C 3.351562 -5.71875 3.097656 -5.65625 2.890625 -5.53125 C 2.679688 -5.40625 2.578125 -5.238281 2.578125 -5.03125 C 2.578125 -4.863281 2.644531 -4.71875 2.78125 -4.59375 C 2.914062 -4.476562 3.144531 -4.390625 3.46875 -4.328125 L 4.734375 -4.0625 C 6.085938 -3.789062 6.765625 -3.160156 6.765625 -2.171875 C 6.765625 -1.710938 6.628906 -1.304688 6.359375 -0.953125 C 6.085938 -0.609375 5.71875 -0.335938 5.25 -0.140625 C 4.78125 0.046875 4.242188 0.140625 3.640625 0.140625 C 2.710938 0.140625 1.972656 -0.0507812 1.421875 -0.4375 C 0.878906 -0.832031 0.5625 -1.363281 0.46875 -2.03125 L 2.375 -2.125 C 2.4375 -1.84375 2.578125 -1.628906 2.796875 -1.484375 C 3.015625 -1.335938 3.300781 -1.265625 3.65625 -1.265625 C 3.988281 -1.265625 4.257812 -1.332031 4.46875 -1.46875 C 4.675781 -1.601562 4.78125 -1.769531 4.78125 -1.96875 C 4.78125 -2.320312 4.484375 -2.554688 3.890625 -2.671875 L 2.671875 -2.921875 C 1.316406 -3.191406 0.644531 -3.859375 0.65625 -4.921875 C 0.644531 -5.585938 0.910156 -6.113281 1.453125 -6.5 C 2.003906 -6.894531 2.726562 -7.09375 3.625 -7.09375 C 4.507812 -7.09375 5.203125 -6.90625 5.703125 -6.53125 C 6.210938 -6.15625 6.515625 -5.648438 6.609375 -5.015625 Z M 6.609375 -5.015625 "/></g></g></g><g fill="#558df0" fill-opacity="1"><g transform="translate(65.559919, 22.054183)"><g><path d="M 4.5 -7 L 4.5 -5.546875 L 3.1875 -5.546875 L 3.1875 -2.15625 C 3.1875 -1.882812 3.242188 -1.703125 3.359375 -1.609375 C 3.484375 -1.515625 3.644531 -1.46875 3.84375 -1.46875 C 3.9375 -1.46875 4.023438 -1.472656 4.109375 -1.484375 C 4.203125 -1.503906 4.273438 -1.519531 4.328125 -1.53125 L 4.625 -0.09375 C 4.53125 -0.0625 4.394531 -0.0234375 4.21875 0.015625 C 4.039062 0.0546875 3.828125 0.0820312 3.578125 0.09375 C 2.867188 0.125 2.300781 -0.0234375 1.875 -0.359375 C 1.445312 -0.691406 1.234375 -1.203125 1.234375 -1.890625 L 1.234375 -5.546875 L 0.28125 -5.546875 L 0.28125 -7 L 1.234375 -7 L 1.234375 -8.6875 L 3.1875 -8.6875 L 3.1875 -7 Z M 4.5 -7 "/></g></g></g><g fill="#ff9202" fill-opacity="1"><g transform="translate(44.379322, 28.152604)"><g><path d="M 0.203125 0 L 0.203125 -2.359375 L 1.140625 -2.359375 C 1.410156 -2.359375 1.617188 -2.285156 1.765625 -2.140625 C 1.910156 -2.003906 1.984375 -1.820312 1.984375 -1.59375 C 1.984375 -1.425781 1.945312 -1.285156 1.875 -1.171875 C 1.800781 -1.054688 1.695312 -0.972656 1.5625 -0.921875 L 2.0625 0 L 1.515625 0 L 1.0625 -0.84375 L 0.703125 -0.84375 L 0.703125 0 Z M 0.703125 -1.234375 L 1.046875 -1.234375 C 1.328125 -1.234375 1.46875 -1.351562 1.46875 -1.59375 C 1.46875 -1.832031 1.328125 -1.953125 1.046875 -1.953125 L 0.703125 -1.953125 Z M 0.703125 -1.234375 "/></g></g></g><g fill="#ff9202" fill-opacity="1"><g transform="translate(47.144658, 28.152604)"><g><path d="M 0.203125 0 L 0.203125 -2.359375 L 1.796875 -2.359375 L 1.796875 -1.953125 L 0.703125 -1.953125 L 0.703125 -1.390625 L 1.71875 -1.390625 L 1.71875 -0.96875 L 0.703125 -0.96875 L 0.703125 -0.40625 L 1.796875 -0.40625 L 1.796875 0 Z M 0.203125 0 "/></g></g></g><g fill="#ff9202" fill-opacity="1"><g transform="translate(49.768296, 28.152604)"><g><path d="M 0.609375 0 L 0.078125 0 L 0.890625 -2.359375 L 1.53125 -2.359375 L 2.359375 0 L 1.8125 0 L 1.640625 -0.53125 L 0.78125 -0.53125 Z M 0.921875 -0.921875 L 1.515625 -0.921875 L 1.21875 -1.828125 L 1.203125 -1.828125 Z M 0.921875 -0.921875 "/></g></g></g><g fill="#ff9202" fill-opacity="1"><g transform="translate(52.83086, 28.152604)"><g><path d="M 0.203125 0 L 0.203125 -2.359375 L 0.703125 -2.359375 L 0.703125 -0.40625 L 1.71875 -0.40625 L 1.71875 0 Z M 0.203125 0 "/></g></g></g><g fill="#ff9202" fill-opacity="1"><g transform="translate(55.308187, 28.152604)"><g/></g></g><g fill="#ff9202" fill-opacity="1"><g transform="translate(56.696835, 28.152604)"><g><path d="M 0.203125 0 L 0.203125 -2.359375 L 1.796875 -2.359375 L 1.796875 -1.953125 L 0.703125 -1.953125 L 0.703125 -1.390625 L 1.71875 -1.390625 L 1.71875 -0.96875 L 0.703125 -0.96875 L 0.703125 -0.40625 L 1.796875 -0.40625 L 1.796875 0 Z M 0.203125 0 "/></g></g></g><g fill="#ff9202" fill-opacity="1"><g transform="translate(59.320473, 28.152604)"><g><path d="M 1.484375 -1.6875 C 1.472656 -1.78125 1.429688 -1.851562 1.359375 -1.90625 C 1.296875 -1.957031 1.203125 -1.984375 1.078125 -1.984375 C 0.960938 -1.984375 0.867188 -1.957031 0.796875 -1.90625 C 0.734375 -1.851562 0.703125 -1.789062 0.703125 -1.71875 C 0.703125 -1.632812 0.738281 -1.566406 0.8125 -1.515625 C 0.882812 -1.472656 0.972656 -1.441406 1.078125 -1.421875 L 1.296875 -1.375 C 1.429688 -1.34375 1.550781 -1.296875 1.65625 -1.234375 C 1.757812 -1.171875 1.84375 -1.09375 1.90625 -1 C 1.96875 -0.914062 2 -0.804688 2 -0.671875 C 2 -0.453125 1.914062 -0.28125 1.75 -0.15625 C 1.59375 -0.03125 1.367188 0.03125 1.078125 0.03125 C 0.796875 0.03125 0.566406 -0.03125 0.390625 -0.15625 C 0.222656 -0.289062 0.132812 -0.484375 0.125 -0.734375 L 0.609375 -0.734375 C 0.617188 -0.617188 0.664062 -0.53125 0.75 -0.46875 C 0.832031 -0.414062 0.941406 -0.390625 1.078125 -0.390625 C 1.203125 -0.390625 1.300781 -0.414062 1.375 -0.46875 C 1.457031 -0.519531 1.5 -0.585938 1.5 -0.671875 C 1.5 -0.753906 1.460938 -0.816406 1.390625 -0.859375 C 1.316406 -0.898438 1.21875 -0.9375 1.09375 -0.96875 L 0.828125 -1.03125 C 0.628906 -1.082031 0.472656 -1.160156 0.359375 -1.265625 C 0.242188 -1.367188 0.1875 -1.507812 0.1875 -1.6875 C 0.1875 -1.820312 0.222656 -1.941406 0.296875 -2.046875 C 0.378906 -2.160156 0.488281 -2.242188 0.625 -2.296875 C 0.757812 -2.359375 0.914062 -2.390625 1.09375 -2.390625 C 1.257812 -2.390625 1.410156 -2.359375 1.546875 -2.296875 C 1.679688 -2.242188 1.785156 -2.160156 1.859375 -2.046875 C 1.929688 -1.941406 1.96875 -1.820312 1.96875 -1.6875 Z M 1.484375 -1.6875 "/></g></g></g><g fill="#ff9202" fill-opacity="1"><g transform="translate(62.081204, 28.152604)"><g><path d="M 0.109375 -1.953125 L 0.109375 -2.359375 L 2.0625 -2.359375 L 2.0625 -1.953125 L 1.328125 -1.953125 L 1.328125 0 L 0.84375 0 L 0.84375 -1.953125 Z M 0.109375 -1.953125 "/></g></g></g><g fill="#ff9202" fill-opacity="1"><g transform="translate(64.885712, 28.152604)"><g><path d="M 0.609375 0 L 0.078125 0 L 0.890625 -2.359375 L 1.53125 -2.359375 L 2.359375 0 L 1.8125 0 L 1.640625 -0.53125 L 0.78125 -0.53125 Z M 0.921875 -0.921875 L 1.515625 -0.921875 L 1.21875 -1.828125 L 1.203125 -1.828125 Z M 0.921875 -0.921875 "/></g></g></g><g fill="#ff9202" fill-opacity="1"><g transform="translate(67.948276, 28.152604)"><g><path d="M 0.109375 -1.953125 L 0.109375 -2.359375 L 2.0625 -2.359375 L 2.0625 -1.953125 L 1.328125 -1.953125 L 1.328125 0 L 0.84375 0 L 0.84375 -1.953125 Z M 0.109375 -1.953125 "/></g></g></g><g fill="#ff9202" fill-opacity="1"><g transform="translate(70.752784, 28.152604)"><g><path d="M 0.203125 0 L 0.203125 -2.359375 L 1.796875 -2.359375 L 1.796875 -1.953125 L 0.703125 -1.953125 L 0.703125 -1.390625 L 1.71875 -1.390625 L 1.71875 -0.96875 L 0.703125 -0.96875 L 0.703125 -0.40625 L 1.796875 -0.40625 L 1.796875 0 Z M 0.203125 0 "/></g></g></g></svg>