<svg xmlns="http://www.w3.org/2000/svg" xmlns:xlink="http://www.w3.org/1999/xlink" width="250" zoomAndPan="magnify" viewBox="0 0 187.5 112.499997" height="150" preserveAspectRatio="xMidYMid meet" version="1.0"><defs><g/><clipPath id="5c587760c2"><path d="M 26.613281 32.648438 L 92.320312 32.648438 L 92.320312 77.449219 L 26.613281 77.449219 Z M 26.613281 32.648438 " clip-rule="nonzero"/></clipPath></defs><g clip-path="url(#5c587760c2)"><path fill="#ffffff" d="M 167.566406 75.222656 C 168.265625 75.222656 168.835938 75.789062 168.835938 76.492188 C 168.835938 77.191406 168.265625 77.761719 167.566406 77.761719 L 37.152344 77.761719 C 35.894531 77.761719 34.753906 77.246094 33.925781 76.421875 C 33.101562 75.59375 32.589844 74.453125 32.589844 73.199219 L 32.589844 57.152344 L 30.324219 57.152344 C 29.441406 57.152344 28.714844 56.921875 28.144531 56.539062 C 27.515625 56.113281 27.101562 55.511719 26.890625 54.828125 C 26.695312 54.195312 26.6875 53.496094 26.863281 52.820312 C 27.070312 52.011719 27.539062 51.222656 28.246094 50.609375 L 47.691406 33.847656 C 48.621094 33.046875 49.828125 32.648438 51.023438 32.648438 C 52.214844 32.648438 53.421875 33.046875 54.351562 33.847656 L 67.421875 45.152344 C 67.949219 45.609375 68.007812 46.410156 67.550781 46.9375 C 67.09375 47.46875 66.292969 47.523438 65.761719 47.066406 L 52.695312 35.765625 C 52.25 35.378906 51.640625 35.1875 51.023438 35.1875 C 50.402344 35.1875 49.792969 35.378906 49.347656 35.765625 L 29.902344 52.527344 C 29.597656 52.789062 29.398438 53.117188 29.316406 53.445312 C 29.257812 53.671875 29.253906 53.898438 29.3125 54.085938 L 29.308594 54.085938 L 29.3125 54.089844 C 29.351562 54.226562 29.4375 54.347656 29.566406 54.433594 C 29.730469 54.546875 29.980469 54.613281 30.324219 54.613281 L 33.859375 54.613281 C 34.558594 54.613281 35.128906 55.183594 35.128906 55.882812 L 35.128906 73.199219 C 35.128906 73.753906 35.355469 74.257812 35.722656 74.625 C 36.089844 74.992188 36.597656 75.222656 37.152344 75.222656 Z M 167.566406 75.222656 " fill-opacity="1" fill-rule="nonzero"/></g><g fill="#ffffff" fill-opacity="1"><g transform="translate(41.413115, 67.722474)"><g><path d="M 13.875 -15.015625 L 13.875 0 L 11.125 0 L 4.59375 -9.453125 L 4.484375 -9.453125 L 4.484375 0 L 1.3125 0 L 1.3125 -15.015625 L 4.09375 -15.015625 L 10.578125 -5.578125 L 10.703125 -5.578125 L 10.703125 -15.015625 Z M 13.875 -15.015625 "/></g></g></g><g fill="#ffffff" fill-opacity="1"><g transform="translate(56.510354, 67.722474)"><g><path d="M 6.375 0.21875 C 5.226562 0.21875 4.234375 -0.015625 3.390625 -0.484375 C 2.554688 -0.960938 1.914062 -1.632812 1.46875 -2.5 C 1.019531 -3.363281 0.796875 -4.390625 0.796875 -5.578125 C 0.796875 -6.742188 1.019531 -7.765625 1.46875 -8.640625 C 1.914062 -9.515625 2.546875 -10.191406 3.359375 -10.671875 C 4.179688 -11.160156 5.144531 -11.40625 6.25 -11.40625 C 7.25 -11.40625 8.144531 -11.195312 8.9375 -10.78125 C 9.738281 -10.363281 10.375 -9.726562 10.84375 -8.875 C 11.3125 -8.03125 11.546875 -6.96875 11.546875 -5.6875 L 11.546875 -4.828125 L 3.875 -4.828125 C 3.875 -3.984375 4.101562 -3.316406 4.5625 -2.828125 C 5.03125 -2.347656 5.65625 -2.109375 6.4375 -2.109375 C 6.957031 -2.109375 7.40625 -2.21875 7.78125 -2.4375 C 8.164062 -2.65625 8.4375 -2.984375 8.59375 -3.421875 L 11.484375 -3.234375 C 11.265625 -2.179688 10.707031 -1.34375 9.8125 -0.71875 C 8.914062 -0.09375 7.769531 0.21875 6.375 0.21875 Z M 3.875 -6.765625 L 8.609375 -6.765625 C 8.609375 -7.441406 8.394531 -7.992188 7.96875 -8.421875 C 7.539062 -8.859375 6.988281 -9.078125 6.3125 -9.078125 C 5.613281 -9.078125 5.039062 -8.851562 4.59375 -8.40625 C 4.15625 -7.957031 3.914062 -7.410156 3.875 -6.765625 Z M 3.875 -6.765625 "/></g></g></g><g fill="#ffffff" fill-opacity="1"><g transform="translate(68.76961, 67.722474)"><g><path d="M 3.859375 -11.265625 L 5.921875 -7.328125 L 8.046875 -11.265625 L 11.25 -11.265625 L 7.984375 -5.640625 L 11.34375 0 L 8.15625 0 L 5.921875 -3.890625 L 3.734375 0 L 0.515625 0 L 3.859375 -5.640625 L 0.625 -11.265625 Z M 3.859375 -11.265625 "/></g></g></g><g fill="#ffffff" fill-opacity="1"><g transform="translate(80.537535, 67.722474)"><g><path d="M 7.234375 -11.265625 L 7.234375 -8.921875 L 5.125 -8.921875 L 5.125 -3.46875 C 5.125 -3.03125 5.21875 -2.734375 5.40625 -2.578125 C 5.601562 -2.429688 5.859375 -2.359375 6.171875 -2.359375 C 6.316406 -2.359375 6.460938 -2.367188 6.609375 -2.390625 C 6.765625 -2.421875 6.878906 -2.445312 6.953125 -2.46875 L 7.453125 -0.140625 C 7.285156 -0.0859375 7.0625 -0.03125 6.78125 0.03125 C 6.5 0.09375 6.15625 0.132812 5.75 0.15625 C 4.613281 0.207031 3.703125 -0.0351562 3.015625 -0.578125 C 2.328125 -1.117188 1.988281 -1.941406 2 -3.046875 L 2 -8.921875 L 0.453125 -8.921875 L 0.453125 -11.265625 L 2 -11.265625 L 2 -13.96875 L 5.125 -13.96875 L 5.125 -11.265625 Z M 7.234375 -11.265625 "/></g></g></g><g fill="#ffffff" fill-opacity="1"><g transform="translate(88.477488, 67.722474)"><g/></g></g><g fill="#ffffff" fill-opacity="1"><g transform="translate(93.183455, 67.722474)"><g><path d="M 13.875 -15.015625 L 13.875 0 L 11.125 0 L 4.59375 -9.453125 L 4.484375 -9.453125 L 4.484375 0 L 1.3125 0 L 1.3125 -15.015625 L 4.09375 -15.015625 L 10.578125 -5.578125 L 10.703125 -5.578125 L 10.703125 -15.015625 Z M 13.875 -15.015625 "/></g></g></g><g fill="#ffffff" fill-opacity="1"><g transform="translate(108.280693, 67.722474)"><g><path d="M 6.375 0.21875 C 5.226562 0.21875 4.234375 -0.015625 3.390625 -0.484375 C 2.554688 -0.960938 1.914062 -1.632812 1.46875 -2.5 C 1.019531 -3.363281 0.796875 -4.390625 0.796875 -5.578125 C 0.796875 -6.742188 1.019531 -7.765625 1.46875 -8.640625 C 1.914062 -9.515625 2.546875 -10.191406 3.359375 -10.671875 C 4.179688 -11.160156 5.144531 -11.40625 6.25 -11.40625 C 7.25 -11.40625 8.144531 -11.195312 8.9375 -10.78125 C 9.738281 -10.363281 10.375 -9.726562 10.84375 -8.875 C 11.3125 -8.03125 11.546875 -6.96875 11.546875 -5.6875 L 11.546875 -4.828125 L 3.875 -4.828125 C 3.875 -3.984375 4.101562 -3.316406 4.5625 -2.828125 C 5.03125 -2.347656 5.65625 -2.109375 6.4375 -2.109375 C 6.957031 -2.109375 7.40625 -2.21875 7.78125 -2.4375 C 8.164062 -2.65625 8.4375 -2.984375 8.59375 -3.421875 L 11.484375 -3.234375 C 11.265625 -2.179688 10.707031 -1.34375 9.8125 -0.71875 C 8.914062 -0.09375 7.769531 0.21875 6.375 0.21875 Z M 3.875 -6.765625 L 8.609375 -6.765625 C 8.609375 -7.441406 8.394531 -7.992188 7.96875 -8.421875 C 7.539062 -8.859375 6.988281 -9.078125 6.3125 -9.078125 C 5.613281 -9.078125 5.039062 -8.851562 4.59375 -8.40625 C 4.15625 -7.957031 3.914062 -7.410156 3.875 -6.765625 Z M 3.875 -6.765625 "/></g></g></g><g fill="#ffffff" fill-opacity="1"><g transform="translate(120.539947, 67.722474)"><g><path d="M 10.625 -8.046875 L 7.765625 -7.875 C 7.679688 -8.238281 7.476562 -8.550781 7.15625 -8.8125 C 6.84375 -9.070312 6.414062 -9.203125 5.875 -9.203125 C 5.394531 -9.203125 4.984375 -9.097656 4.640625 -8.890625 C 4.304688 -8.691406 4.144531 -8.421875 4.15625 -8.078125 C 4.144531 -7.816406 4.25 -7.59375 4.46875 -7.40625 C 4.6875 -7.21875 5.054688 -7.066406 5.578125 -6.953125 L 7.625 -6.546875 C 9.789062 -6.097656 10.875 -5.078125 10.875 -3.484375 C 10.875 -2.753906 10.65625 -2.109375 10.21875 -1.546875 C 9.789062 -0.992188 9.203125 -0.5625 8.453125 -0.25 C 7.703125 0.0625 6.835938 0.21875 5.859375 0.21875 C 4.367188 0.21875 3.179688 -0.09375 2.296875 -0.71875 C 1.410156 -1.34375 0.894531 -2.191406 0.75 -3.265625 L 3.828125 -3.421875 C 3.921875 -2.960938 4.144531 -2.613281 4.5 -2.375 C 4.851562 -2.144531 5.3125 -2.03125 5.875 -2.03125 C 6.414062 -2.03125 6.851562 -2.132812 7.1875 -2.34375 C 7.519531 -2.5625 7.691406 -2.835938 7.703125 -3.171875 C 7.691406 -3.734375 7.207031 -4.109375 6.25 -4.296875 L 4.3125 -4.6875 C 2.125 -5.125 1.035156 -6.195312 1.046875 -7.90625 C 1.046875 -8.988281 1.476562 -9.84375 2.34375 -10.46875 C 3.21875 -11.09375 4.378906 -11.40625 5.828125 -11.40625 C 7.242188 -11.40625 8.363281 -11.101562 9.1875 -10.5 C 10.007812 -9.90625 10.488281 -9.085938 10.625 -8.046875 Z M 10.625 -8.046875 "/></g></g></g><g fill="#ffffff" fill-opacity="1"><g transform="translate(132.058535, 67.722474)"><g><path d="M 7.234375 -11.265625 L 7.234375 -8.921875 L 5.125 -8.921875 L 5.125 -3.46875 C 5.125 -3.03125 5.21875 -2.734375 5.40625 -2.578125 C 5.601562 -2.429688 5.859375 -2.359375 6.171875 -2.359375 C 6.316406 -2.359375 6.460938 -2.367188 6.609375 -2.390625 C 6.765625 -2.421875 6.878906 -2.445312 6.953125 -2.46875 L 7.453125 -0.140625 C 7.285156 -0.0859375 7.0625 -0.03125 6.78125 0.03125 C 6.5 0.09375 6.15625 0.132812 5.75 0.15625 C 4.613281 0.207031 3.703125 -0.0351562 3.015625 -0.578125 C 2.328125 -1.117188 1.988281 -1.941406 2 -3.046875 L 2 -8.921875 L 0.453125 -8.921875 L 0.453125 -11.265625 L 2 -11.265625 L 2 -13.96875 L 5.125 -13.96875 L 5.125 -11.265625 Z M 7.234375 -11.265625 "/></g></g></g><g fill="#ffffff" fill-opacity="1"><g transform="translate(96.063861, 78.125605)"><g><path d="M 0.328125 0 L 0.328125 -3.796875 L 1.828125 -3.796875 C 2.253906 -3.796875 2.585938 -3.679688 2.828125 -3.453125 C 3.066406 -3.234375 3.1875 -2.9375 3.1875 -2.5625 C 3.1875 -2.300781 3.128906 -2.078125 3.015625 -1.890625 C 2.898438 -1.703125 2.734375 -1.5625 2.515625 -1.46875 L 3.328125 0 L 2.4375 0 L 1.71875 -1.34375 L 1.125 -1.34375 L 1.125 0 Z M 1.125 -1.984375 L 1.671875 -1.984375 C 2.128906 -1.984375 2.359375 -2.175781 2.359375 -2.5625 C 2.359375 -2.945312 2.128906 -3.140625 1.671875 -3.140625 L 1.125 -3.140625 Z M 1.125 -1.984375 "/></g></g></g><g fill="#ffffff" fill-opacity="1"><g transform="translate(100.515466, 78.125605)"><g><path d="M 0.328125 0 L 0.328125 -3.796875 L 2.890625 -3.796875 L 2.890625 -3.140625 L 1.125 -3.140625 L 1.125 -2.234375 L 2.75 -2.234375 L 2.75 -1.5625 L 1.125 -1.5625 L 1.125 -0.65625 L 2.890625 -0.65625 L 2.890625 0 Z M 0.328125 0 "/></g></g></g><g fill="#ffffff" fill-opacity="1"><g transform="translate(104.73892, 78.125605)"><g><path d="M 0.984375 0 L 0.125 0 L 1.4375 -3.796875 L 2.46875 -3.796875 L 3.78125 0 L 2.921875 0 L 2.640625 -0.859375 L 1.265625 -0.859375 Z M 1.46875 -1.484375 L 2.4375 -1.484375 L 1.96875 -2.921875 L 1.9375 -2.921875 Z M 1.46875 -1.484375 "/></g></g></g><g fill="#ffffff" fill-opacity="1"><g transform="translate(109.669079, 78.125605)"><g><path d="M 0.328125 0 L 0.328125 -3.796875 L 1.125 -3.796875 L 1.125 -0.65625 L 2.765625 -0.65625 L 2.765625 0 Z M 0.328125 0 "/></g></g></g><g fill="#ffffff" fill-opacity="1"><g transform="translate(113.656962, 78.125605)"><g/></g></g><g fill="#ffffff" fill-opacity="1"><g transform="translate(115.89199, 78.125605)"><g><path d="M 0.328125 0 L 0.328125 -3.796875 L 2.890625 -3.796875 L 2.890625 -3.140625 L 1.125 -3.140625 L 1.125 -2.234375 L 2.75 -2.234375 L 2.75 -1.5625 L 1.125 -1.5625 L 1.125 -0.65625 L 2.890625 -0.65625 L 2.890625 0 Z M 0.328125 0 "/></g></g></g><g fill="#ffffff" fill-opacity="1"><g transform="translate(120.115444, 78.125605)"><g><path d="M 2.390625 -2.703125 C 2.367188 -2.847656 2.300781 -2.960938 2.1875 -3.046875 C 2.082031 -3.128906 1.929688 -3.171875 1.734375 -3.171875 C 1.546875 -3.171875 1.394531 -3.128906 1.28125 -3.046875 C 1.175781 -2.972656 1.125 -2.875 1.125 -2.75 C 1.125 -2.613281 1.179688 -2.507812 1.296875 -2.4375 C 1.421875 -2.375 1.566406 -2.320312 1.734375 -2.28125 L 2.078125 -2.203125 C 2.296875 -2.148438 2.488281 -2.078125 2.65625 -1.984375 C 2.832031 -1.890625 2.96875 -1.769531 3.0625 -1.625 C 3.15625 -1.476562 3.203125 -1.296875 3.203125 -1.078125 C 3.203125 -0.734375 3.070312 -0.457031 2.8125 -0.25 C 2.5625 -0.0507812 2.203125 0.046875 1.734375 0.046875 C 1.273438 0.046875 0.90625 -0.0546875 0.625 -0.265625 C 0.351562 -0.472656 0.210938 -0.78125 0.203125 -1.1875 L 0.984375 -1.1875 C 0.992188 -1 1.066406 -0.859375 1.203125 -0.765625 C 1.335938 -0.671875 1.515625 -0.625 1.734375 -0.625 C 1.929688 -0.625 2.085938 -0.664062 2.203125 -0.75 C 2.328125 -0.832031 2.394531 -0.945312 2.40625 -1.09375 C 2.394531 -1.21875 2.332031 -1.3125 2.21875 -1.375 C 2.113281 -1.445312 1.957031 -1.507812 1.75 -1.5625 L 1.34375 -1.671875 C 1.019531 -1.742188 0.765625 -1.863281 0.578125 -2.03125 C 0.398438 -2.195312 0.3125 -2.421875 0.3125 -2.703125 C 0.3125 -2.929688 0.367188 -3.128906 0.484375 -3.296875 C 0.609375 -3.472656 0.78125 -3.609375 1 -3.703125 C 1.21875 -3.796875 1.46875 -3.84375 1.75 -3.84375 C 2.03125 -3.84375 2.273438 -3.796875 2.484375 -3.703125 C 2.691406 -3.609375 2.851562 -3.472656 2.96875 -3.296875 C 3.09375 -3.128906 3.15625 -2.929688 3.15625 -2.703125 Z M 2.390625 -2.703125 "/></g></g></g><g fill="#ffffff" fill-opacity="1"><g transform="translate(124.55963, 78.125605)"><g><path d="M 0.1875 -3.140625 L 0.1875 -3.796875 L 3.296875 -3.796875 L 3.296875 -3.140625 L 2.140625 -3.140625 L 2.140625 0 L 1.34375 0 L 1.34375 -3.140625 Z M 0.1875 -3.140625 "/></g></g></g><g fill="#ffffff" fill-opacity="1"><g transform="translate(129.0743, 78.125605)"><g><path d="M 0.984375 0 L 0.125 0 L 1.4375 -3.796875 L 2.46875 -3.796875 L 3.78125 0 L 2.921875 0 L 2.640625 -0.859375 L 1.265625 -0.859375 Z M 1.46875 -1.484375 L 2.4375 -1.484375 L 1.96875 -2.921875 L 1.9375 -2.921875 Z M 1.46875 -1.484375 "/></g></g></g><g fill="#ffffff" fill-opacity="1"><g transform="translate(134.004458, 78.125605)"><g><path d="M 0.1875 -3.140625 L 0.1875 -3.796875 L 3.296875 -3.796875 L 3.296875 -3.140625 L 2.140625 -3.140625 L 2.140625 0 L 1.34375 0 L 1.34375 -3.140625 Z M 0.1875 -3.140625 "/></g></g></g><g fill="#ffffff" fill-opacity="1"><g transform="translate(138.519128, 78.125605)"><g><path d="M 0.328125 0 L 0.328125 -3.796875 L 2.890625 -3.796875 L 2.890625 -3.140625 L 1.125 -3.140625 L 1.125 -2.234375 L 2.75 -2.234375 L 2.75 -1.5625 L 1.125 -1.5625 L 1.125 -0.65625 L 2.890625 -0.65625 L 2.890625 0 Z M 0.328125 0 "/></g></g></g></svg>